<svg id="proxy-cache-service_icon" data-name="proxy-cache-service_icon" xmlns="http://www.w3.org/2000/svg" viewBox="0 0 21 20" width="160px" heigth="160px">

    <title>proxy-cache-service_icon</title>
    <g>
        <animateTransform 
            attributeName="transform"
            type="rotate"
            from="0 10 10"
            to="360 10 10" 
            dur="60s"
            repeatCount="indefinite"
            begin="5s"
            id="rotate-animation"
        />
        <circle cx="10" cy="10" r="9.03" fill="#00bcd4"/>
        <circle cx="10" cy="10" r="10" fill="none"/>
        <path d="M19.5,9.79a10.54,10.54,0,0,1-2.27,7,8.49,8.49,0,0,1-5.61,2.71H9.84a9.06,9.06,0,0,1-6.23-2.71A9,9,0,0,1,.5,10,9,9,0,0,1,3.38,3.25,10,10,0,0,1,10.57.5a8.15,8.15,0,0,1,3.32,1.08,10.16,10.16,0,0,1,3,2A9.54,9.54,0,0,1,19.5,9.79Zm-1.23,1.49A7.74,7.74,0,0,0,16,5.73a5.7,5.7,0,0,0-4-2A6.76,6.76,0,0,0,7,5.92a7.31,7.31,0,0,0-2.13,5.28,6.72,6.72,0,0,0,2,4.57A5.87,5.87,0,0,0,11.23,18a7.07,7.07,0,0,0,4.9-2A6.16,6.16,0,0,0,18.27,11.28Zm-2-1.54a4.05,4.05,0,0,1-1.19,2.95,4,4,0,0,1-2.94,1.22,4.18,4.18,0,0,1-3-1.3,4.2,4.2,0,0,1-1.3-3.08A5,5,0,0,1,9,6.23a3.51,3.51,0,0,1,2.78-1.35,4.29,4.29,0,0,1,3,1.6A4.78,4.78,0,0,1,16.31,9.74Zm-4.92.33q0-1.49-1.28-1.49a1.41,1.41,0,0,0-1,.51,1.48,1.48,0,0,0-.48,1,1.18,1.18,0,0,0,1.33,1.35Q11.39,11.42,11.4,10.07Z" fill="#ffab40"/>
    </g>
</svg>
