<svg id="Слой_1" data-name="Слой 1" xmlns="http://www.w3.org/2000/svg" viewBox="0 0 20 20" width="160px" heigth="160px">
    <title>proxy-cache-service_icon</title>
    <circle cx="10" cy="10" r="9.5" fill="#00bcd4"/>
    <path d="M20,9.78a11.09,11.09,0,0,1-2.39,7.37A7.4,7.4,0,0,1,11.71,20H9.83a9.54,9.54,0,0,1-6.55-2.85A9.44,9.44,0,0,1,0,10,9.47,9.47,0,0,1,3,2.9,10.53,10.53,0,0,1,10.6,0,8.58,8.58,0,0,1,14.1,1.13,10.69,10.69,0,0,1,17.2,3.24,10,10,0,0,1,20,9.78Zm-1.29,1.57A8.15,8.15,0,0,0,16.35,5.5a6,6,0,0,0-4.24-2.11A7.12,7.12,0,0,0,6.83,5.7a7.69,7.69,0,0,0-2.24,5.55,7.08,7.08,0,0,0,2.12,4.82,6.18,6.18,0,0,0,4.58,2.31,7.44,7.44,0,0,0,5.16-2.06A6.48,6.48,0,0,0,18.71,11.35ZM16.65,9.73a4.27,4.27,0,0,1-1.26,3.1,4.17,4.17,0,0,1-3.1,1.28,4.4,4.4,0,0,1-3.21-1.37A4.42,4.42,0,0,1,7.72,9.5,5.21,5.21,0,0,1,8.92,6a3.69,3.69,0,0,1,2.93-1.42,4.52,4.52,0,0,1,3.21,1.68A5,5,0,0,1,16.65,9.73Zm-5.18.34q0-1.57-1.35-1.57A1.48,1.48,0,0,0,9,9a1.56,1.56,0,0,0-.51,1,1.25,1.25,0,0,0,1.4,1.43Q11.47,11.5,11.47,10.07Z" fill="#ffab40"/>
</svg>